<svg xmlns="http://www.w3.org/2000/svg" width="29" height="30" viewBox="0 0 29 30">
  <g id="IG-white" transform="translate(-337 -5079)">
    <rect id="Rectangle_150" data-name="Rectangle 150" width="29" height="30" rx="14.5" transform="translate(337 5079)" fill="#fff"/>
    <g id="Icon_feather-instagram" data-name="Icon feather-instagram" transform="translate(344.496 5087.205)">
      <path id="Path_369" data-name="Path 369" d="M4.923,1.5h5.7a3.427,3.427,0,0,1,3.423,3.423v5.7a3.427,3.427,0,0,1-3.423,3.423h-5.7A3.427,3.427,0,0,1,1.5,10.628v-5.7A3.427,3.427,0,0,1,4.923,1.5Zm5.7,11.41a2.285,2.285,0,0,0,2.282-2.282v-5.7a2.285,2.285,0,0,0-2.282-2.282h-5.7A2.285,2.285,0,0,0,2.641,4.923v5.7A2.285,2.285,0,0,0,4.923,12.91Z" transform="translate(-0.93 -0.93)" fill="#222725"/>
      <path id="Path_370" data-name="Path 370" d="M13.415,10.435a2.867,2.867,0,0,1,.419.031,2.852,2.852,0,0,1,.864,5.369,2.865,2.865,0,0,1-1.282.3,2.853,2.853,0,0,1,0-5.705Zm0,4.564a1.712,1.712,0,1,0-1.211-.5A1.7,1.7,0,0,0,13.416,15Z" transform="translate(-6.545 -6.466)" fill="#222725"/>
      <path id="Path_371" data-name="Path 371" fill="#222725"/>
    </g>
  </g>
</svg>
