<svg xmlns="http://www.w3.org/2000/svg" width="30" height="30" viewBox="0 0 30 30">
  <g id="linkedin-white" transform="translate(-375 -5079)">
    <rect id="Rectangle_151" data-name="Rectangle 151" width="30" height="30" rx="15" transform="translate(375 5079)" fill="#fff"/>
    <path id="Icon_awesome-linkedin-in" data-name="Icon awesome-linkedin-in" d="M2.937,13.121H.217V4.361h2.72ZM1.575,3.166a1.583,1.583,0,1,1,1.575-1.59A1.589,1.589,0,0,1,1.575,3.166Zm11.543,9.955H10.4V8.857c0-1.016-.021-2.32-1.414-2.32-1.414,0-1.631,1.1-1.631,2.246v4.338H4.641V4.361H7.25V5.556h.038A2.858,2.858,0,0,1,9.862,4.142c2.753,0,3.259,1.813,3.259,4.168v4.812Z" transform="translate(383.392 5086.922)" fill="#222725"/>
  </g>
</svg>
