<svg id="RentMo-logo" xmlns="http://www.w3.org/2000/svg" xmlns:xlink="http://www.w3.org/1999/xlink" width="197.667" height="76.444" viewBox="0 0 197.667 76.444">
  <defs>
    <clipPath id="clip-path">
      <rect id="Rectangle_702" data-name="Rectangle 702" width="197.667" height="76.444" fill="none"/>
    </clipPath>
    <clipPath id="clip-path-2">
      <rect id="Rectangle_701" data-name="Rectangle 701" width="30.536" height="49.909" fill="none"/>
    </clipPath>
  </defs>
  <g id="Group_692" data-name="Group 692" clip-path="url(#clip-path)">
    <g id="Group_691" data-name="Group 691" transform="translate(18.699 26.535)">
      <g id="Group_690" data-name="Group 690" clip-path="url(#clip-path-2)">
        <g id="Group_689" data-name="Group 689">
          <g id="Group_688" data-name="Group 688" clip-path="url(#clip-path-2)">
            <path id="Path_832" data-name="Path 832" d="M76.341,94.5l-13.064,5.927c-1.317-2.794-2.647-5.547-3.965-8.331a1.139,1.139,0,0,1,.16-.07,1.886,1.886,0,0,0,1.239-1.512c.183-1.135.377-2.279.571-3.424l.287-.131.815,3.554A1.8,1.8,0,0,0,63.39,91.8c.229.09.448.169.7.261L67.2,93.188v-.011l.887.327.577-1.832c.067-.2.123-.391.19-.58a.238.238,0,0,0,.027-.08l.192.036.451-1.534c.041-.13.072-.261.124-.39a1.824,1.824,0,0,0-.238-1.774l-2.187-3.079a2.045,2.045,0,0,0,.2-.107l3.137,1.974a2,2,0,0,0,.879.306l.388.021.329-.128.254-.1c1.309,2.762,2.62,5.5,3.929,8.266" transform="translate(-59.312 -84.165)" fill="#fff"/>
            <path id="Path_833" data-name="Path 833" d="M100.418,151.2c-.357,2.23-.917,4.421-1.376,6.642-.022.12-.038.3-.216.3-.209,0-.269-.206-.348-.356-.8-1.507-1.493-3.076-2.237-4.621-2.053-4.311-4.143-8.6-6.177-12.924-1.738-3.688-3.417-7.391-5.123-11.082a7.746,7.746,0,0,0-.642-1.2.957.957,0,0,0-1.234-.4c-.49.222-.511.659-.426,1.113a8.758,8.758,0,0,0,.879,2.107c1.574,3.3,3.184,6.588,4.758,9.89q4.337,9.129,8.641,18.285c.211.441.4.9.618,1.339.2.369.061.5-.3.519a2.691,2.691,0,0,1-1.376-.284c-2.363-1.2-4.735-2.406-7.069-3.645a1.748,1.748,0,0,1-1.012-2.255c.1-.527.2-1.041.331-1.562a3.394,3.394,0,0,0-.662-2.884,2.569,2.569,0,0,0-1.483-1,2.4,2.4,0,0,1-1.945-1.515,1.627,1.627,0,0,1-.012-1.089c.494-1.493.133-2.555-1.341-2.981a1.826,1.826,0,0,1-1.119-1.069c-.371-.794-.756-1.594-1.131-2.4a1.929,1.929,0,0,1-.021-1.807,3.093,3.093,0,0,0,.442-2.017,2.352,2.352,0,0,0-2-2.386,3.893,3.893,0,0,1-3.037-2.6c-.329-.726-.667-1.448-1.006-2.17l13.1-5.939c.425.912.872,1.826,1.31,2.743a2.471,2.471,0,0,1,.131,2.195,8.4,8.4,0,0,1-.333.884,2.567,2.567,0,0,0,.322,2.907,1.953,1.953,0,0,0,1.278.887,3.386,3.386,0,0,1,2.638,2.415c.182.5.467.959.649,1.456a2.932,2.932,0,0,1,.015,1.963,1.654,1.654,0,0,0,.895,2.166c.3.159.609.282.907.432a1.675,1.675,0,0,1,.876,1.835,4.572,4.572,0,0,1-.248.9c-.619,1.386-.1,2.561.631,3.708a1.52,1.52,0,0,0,.641.5c.625.34,1.251.659,1.861,1.016a1.809,1.809,0,0,1,.955,1.985" transform="translate(-69.912 -110.9)" fill="#fff"/>
          </g>
        </g>
      </g>
    </g>
    <path id="Path_834" data-name="Path 834" d="M40.867,20.553A20.433,20.433,0,1,0,19.783,40.835l1.23,2.715,1.65-.751,13.064-5.927,1.725-.776-1.221-2.7a20.32,20.32,0,0,0,4.635-12.838m-9.321,8.155-.328.128-.388-.021a2,2,0,0,1-.879-.306l-3.137-1.974-.137-.083c-.034.038-.079.086-.113.125l.046.065L28.8,29.72a1.824,1.824,0,0,1,.238,1.774c-.051.13-.082.26-.124.39l-.451,1.534-.192-.036a.225.225,0,0,1-.027.08c-.066.189-.123.38-.189.58l-.577,1.832-.888-.327v.01l-3.111-1.131c-.249-.092-.469-.171-.7-.261a1.8,1.8,0,0,1-1.006-1.281l-.815-3.554L20.9,29.1a.924.924,0,0,1-.175.007c-.02.121-.039.233-.059.354-.194,1.144-.388,2.289-.571,3.424A1.887,1.887,0,0,1,18.859,34.4a1.1,1.1,0,0,0-.16.069,1.187,1.187,0,0,0-.2.087l-3.1,1.4.015-.06-.713.323-.323-.7-.014.04-1.387-3.076c-.112-.265-.217-.5-.31-.743a1.672,1.672,0,0,1,.217-1.563L14.941,26.9a1.517,1.517,0,0,1-.124-.123l-3.155,2.242a1.809,1.809,0,0,1-1.229.354,1.931,1.931,0,0,1-.633-.163c-.139-.062-.279-.115-.428-.177L6.29,27.8l-.705-.292.6-1.666c.093-.27.187-.539.3-.807l.475-1.327c.082-.25.161-.47.25-.688a1.825,1.825,0,0,1,1.252-1.029c1.265-.289,3.816-.876,3.816-.876-.006-.052,0-.113-.007-.165-1.265-.224-2.531-.438-3.807-.652a1.832,1.832,0,0,1-1.456-1.173c-.051-.137-.113-.255-.174-.393L5.445,15.617l.05.014-.323-.713.713-.312-.049-.025,3.1-1.385c.245-.114.479-.218.712-.3l.317-.119.378.02a2.017,2.017,0,0,1,.9.318l3.255,2.045c.034-.038.079-.086.113-.124l-.886-1.251c-.452-.641-.914-1.284-1.365-1.935a1.941,1.941,0,0,1-.281-1.5c.049-.222.117-.432.174-.643l.44-1.535.223.038c.1-.259.2-.507.308-.776l.653-1.62,1.667.594c.27.093.519.185.767.287l1.377.489c.249.092.489.172.717.273a1.8,1.8,0,0,1,1.006,1.291c.29,1.254.58,2.509.86,3.763a1.018,1.018,0,0,1,.175-.007c.213-1.266.427-2.521.64-3.787a1.864,1.864,0,0,1,1.228-1.5,3.683,3.683,0,0,0,.351-.157L25.767,5.66l0,.051.7-.314.323.713.025-.049,1.385,3.1c.1.244.21.458.295.68a1.714,1.714,0,0,1-.2,1.575l-2.058,3.295a1.574,1.574,0,0,0,.124.122l.577-.416c.87-.608,1.73-1.227,2.6-1.835a1.927,1.927,0,0,1,1.246-.322l.1.008.172.034c.212.048.432.117.643.175l1.362.416-.007.215a2.735,2.735,0,0,1,.708.251h.01a.13.13,0,0,1,.061.015,2.087,2.087,0,0,1,.261.072l1.564.463-.67,1.835c-.093.27-.185.519-.276.758l-.5,1.4c-.092.26-.173.489-.273.717a1.847,1.847,0,0,1-1.281,1.006l-3.774.869c.006.052,0,.113.008.165,1.255.213,2.52.437,3.777.64a1.867,1.867,0,0,1,1.5,1.238c.042.116.1.223.157.351l1.395,3.108-.05-.014.314.7L35.273,27l.059.025-3.1,1.385c-.149.07-.3.131-.436.191l-.254.1" transform="translate(-0.001 0)" fill="#fff"/>
    <path id="Path_835" data-name="Path 835" d="M22.975,31.969c.152.34.291.626.407.92a.445.445,0,0,0,.319.292q2.975.908,5.945,1.831c.079.024.156.052.239.079l-.116.416-5.882-1.4c.129.288.238.509.326.737a.318.318,0,0,0,.282.223c1.533.254,3.066.517,4.6.778l.583.1a7,7,0,0,0,.069,2.628c-.1.027-.182.051-.263.069Q27.04,39.2,24.6,39.763a.3.3,0,0,0-.194.13c-.11.262-.2.533-.31.844l5.768-1.717.14.4c-.1.043-.165.079-.237.105q-2.926,1.086-5.853,2.173c-.08.03-.186.08-.214.148-.143.349-.263.707-.4,1.079.361.145.7.289,1.05.416a.33.33,0,0,0,.234-.038q2.352-1.238,4.7-2.483c.359-.19.721-.375,1.091-.568l.206.382-5.127,3.156c.28.113.518.2.748.3a.3.3,0,0,0,.339-.041q1.377-.985,2.76-1.962L30.831,41a7.082,7.082,0,0,0,1.912,1.813c-.056.092-.095.158-.136.223q-1.32,2.1-2.64,4.205c-.043.069-.114.167-.093.222.107.283.24.556.388.887l2.877-5.319.39.2-.163.358q-1.269,2.764-2.536,5.528c-.037.08-.087.189-.061.257.142.357.307.7.475,1.081.344-.154.643-.3.951-.421a.405.405,0,0,0,.258-.293q.829-2.708,1.668-5.413c.079-.257.16-.514.244-.781l.42.116-1.4,5.878c.282-.126.5-.236.72-.317a.348.348,0,0,0,.246-.317c.271-1.633.551-3.264.829-4.9.014-.082.032-.163.049-.254a7.058,7.058,0,0,0,2.622-.067c.026.088.049.154.064.221q.559,2.453,1.12,4.907c.017.075.059.178.117.2.267.114.544.206.862.321L38.3,43.572l.414-.137c.175.468.341.908.5,1.35Q40.1,47.19,41,49.594a.268.268,0,0,0,.127.148c.352.137.708.261,1.145.419.107-.336.2-.656.313-.967a.427.427,0,0,0-.022-.391q-1.243-2.336-2.478-4.676c-.184-.347-.364-.7-.556-1.066l.384-.205,3.131,5.086.109.017c.073-.244.133-.492.222-.729a.323.323,0,0,0-.048-.34q-1.059-1.482-2.111-2.967c-.307-.433-.613-.868-.931-1.319a6.911,6.911,0,0,0,1.809-1.911c.084.05.156.092.227.136q2.112,1.327,4.226,2.652c.066.041.166.093.224.071.276-.106.543-.235.864-.378L42.315,40.3l.2-.388c.1.045.192.084.282.125q2.8,1.283,5.591,2.566c.076.035.176.1.234.074.369-.148.73-.318,1.114-.49-.15-.335-.289-.62-.4-.915a.447.447,0,0,0-.319-.293q-2.487-.757-4.97-1.528c-.4-.124-.805-.251-1.212-.378l.117-.419,5.877,1.4c-.125-.281-.235-.494-.316-.717a.348.348,0,0,0-.316-.247c-1.64-.272-3.279-.554-4.918-.833-.074-.013-.147-.031-.233-.05a6.969,6.969,0,0,0-.068-2.616c.07-.022.119-.042.171-.054q2.465-.562,4.929-1.126a.37.37,0,0,0,.238-.143c.116-.259.2-.531.312-.841l-5.773,1.719-.135-.4c.076-.034.131-.062.188-.083l2.372-.881q1.784-.662,3.568-1.326a.331.331,0,0,0,.182-.151c.137-.343.258-.693.41-1.11A3.343,3.343,0,0,1,48.824,31a.977.977,0,0,0-1.045.038c-1.394.773-2.812,1.5-4.222,2.244-.4.211-.8.419-1.219.635l-.2-.382L47.219,30.4c0-.038.005-.076.008-.114-.245-.073-.487-.157-.735-.212a.433.433,0,0,0-.309.043c-1.127.789-2.247,1.589-3.369,2.385-.306.217-.615.431-.933.654a7.062,7.062,0,0,0-1.91-1.809c.053-.087.091-.154.132-.218Q41.435,29,42.766,26.881c.038-.061.087-.152.067-.2-.108-.276-.236-.544-.381-.869l-2.876,5.317-.386-.2c.044-.1.083-.192.125-.282q1.287-2.806,2.574-5.613c.034-.074.084-.175.06-.236-.146-.362-.312-.716-.482-1.1-.343.153-.635.3-.936.414a.425.425,0,0,0-.271.309q-.917,3-1.844,5.99a1.552,1.552,0,0,0-.035.2l-.449-.124,1.4-5.882c-.283.127-.5.235-.719.317a.349.349,0,0,0-.247.316c-.27,1.633-.551,3.264-.829,4.9-.014.082-.032.162-.051.259a6.989,6.989,0,0,0-2.621.069c-.021-.07-.04-.119-.051-.171q-.561-2.465-1.126-4.929a.367.367,0,0,0-.143-.238c-.259-.115-.531-.2-.842-.313l1.717,5.769-.411.147c-.233-.623-.458-1.223-.681-1.824q-.8-2.155-1.6-4.309a.334.334,0,0,0-.149-.185c-.343-.137-.694-.256-1.061-.389-.147.365-.292.714-.425,1.067a.27.27,0,0,0,.03.193q1.2,2.269,2.4,4.535c.223.421.442.843.669,1.278l-.384.2-3.13-5.085-.119-.022c-.072.253-.154.5-.211.758a.407.407,0,0,0,.037.289c.647.925,1.3,1.843,1.957,2.763.362.509.72,1.02,1.093,1.548a7.049,7.049,0,0,0-1.811,1.915l-.2-.123q-2.112-1.327-4.225-2.653c-.073-.046-.181-.111-.244-.088-.278.1-.546.235-.87.38L30.4,33.862l-.193.386c-.094-.04-.172-.071-.248-.106q-2.827-1.3-5.655-2.593a.391.391,0,0,0-.256-.052c-.35.14-.691.3-1.072.472" transform="translate(-15.732 -16.228)" fill="#fcd116"/>
    <path id="Path_836" data-name="Path 836" d="M172.366,80.422,165.04,67.843h-4.855V80.422h-4.017V49.659H166.1a13.186,13.186,0,0,1,5.892,1.192,8.3,8.3,0,0,1,3.6,3.222,8.918,8.918,0,0,1-6.135,13.462l7.724,12.888Zm-12.182-15.8H166.1a6.71,6.71,0,0,0,4.9-1.611,5.774,5.774,0,0,0,1.633-4.3,5.507,5.507,0,0,0-1.611-4.237,7.012,7.012,0,0,0-4.921-1.5h-5.914Z" transform="translate(-106.933 -34.003)" fill="#fff"/>
    <path id="Path_837" data-name="Path 837" d="M252.962,83.25H233.63a7.6,7.6,0,0,0,7.856,7.591,7.423,7.423,0,0,0,4.347-1.214,6.427,6.427,0,0,0,2.45-3.244h4.326a10.4,10.4,0,0,1-3.884,5.671,11.723,11.723,0,0,1-7.238,2.185,12.224,12.224,0,0,1-6.157-1.545A10.932,10.932,0,0,1,231.07,88.3a13.612,13.612,0,0,1-1.545-6.6,13.812,13.812,0,0,1,1.5-6.576,10.533,10.533,0,0,1,4.215-4.348,12.547,12.547,0,0,1,6.245-1.522,12.144,12.144,0,0,1,6.091,1.5,10.4,10.4,0,0,1,4.083,4.127,12.182,12.182,0,0,1,1.435,5.937,23.613,23.613,0,0,1-.132,2.428m-5.032-7.217a6.607,6.607,0,0,0-2.759-2.516,8.606,8.606,0,0,0-3.862-.86,7.444,7.444,0,0,0-5.186,1.942,7.91,7.91,0,0,0-2.45,5.385h15.271a7.412,7.412,0,0,0-1.015-3.95" transform="translate(-157.163 -47.424)" fill="#fff"/>
    <path id="Path_838" data-name="Path 838" d="M333.018,71.789q2.736,2.671,2.737,7.7V93.747h-3.973V80.065a7.777,7.777,0,0,0-1.809-5.539,6.466,6.466,0,0,0-4.943-1.92,6.62,6.62,0,0,0-5.053,1.986,8.112,8.112,0,0,0-1.876,5.782V93.747h-4.017V69.56H318.1V73a7.978,7.978,0,0,1,3.244-2.869,10.064,10.064,0,0,1,4.524-1.015,9.807,9.807,0,0,1,7.15,2.67" transform="translate(-215.062 -47.328)" fill="#fff"/>
    <path id="Path_839" data-name="Path 839" d="M396.692,60.6V74.856a3.391,3.391,0,0,0,.75,2.494,3.7,3.7,0,0,0,2.6.728H403v3.4h-3.619a7.2,7.2,0,0,1-5.032-1.545q-1.678-1.544-1.677-5.076V60.6h-3.134V57.29h3.134V51.2h4.017V57.29H403V60.6Z" transform="translate(-266.731 -35.058)" fill="#fff"/>
    <path id="Path_840" data-name="Path 840" d="M471.846,50.358V80.9h-4.016V58.127L457.678,80.9h-2.825l-10.2-22.819V80.9h-4.017V50.358h4.325l11.3,25.247,11.3-25.247Z" transform="translate(-301.72 -34.482)" fill="#fcd116"/>
    <path id="Path_841" data-name="Path 841" d="M555.31,92.7a10.99,10.99,0,0,1-4.325-4.392,13.46,13.46,0,0,1-1.567-6.6,13.073,13.073,0,0,1,1.611-6.554,11.1,11.1,0,0,1,4.391-4.369,13.479,13.479,0,0,1,12.447,0,11.144,11.144,0,0,1,4.392,4.348,13.049,13.049,0,0,1,1.611,6.576,12.888,12.888,0,0,1-1.656,6.6,11.471,11.471,0,0,1-4.48,4.392,12.841,12.841,0,0,1-6.267,1.545A12.377,12.377,0,0,1,555.31,92.7m10.218-3a7.727,7.727,0,0,0,3.068-3.046,9.761,9.761,0,0,0,1.17-4.943,9.908,9.908,0,0,0-1.148-4.943,7.52,7.52,0,0,0-3-3.024,8.666,8.666,0,0,0-8.055,0,7.276,7.276,0,0,0-2.935,3.024,10.225,10.225,0,0,0-1.1,4.943,10.5,10.5,0,0,0,1.081,4.988,7.182,7.182,0,0,0,2.891,3.023,8.119,8.119,0,0,0,3.972.993,8.479,8.479,0,0,0,4.061-1.015" transform="translate(-376.203 -47.424)" fill="#fcd116"/>
  </g>
</svg>
